<?xml version="1.0" encoding="UTF-8"?>
<svg xmlns="http://www.w3.org/2000/svg" xmlns:xlink="http://www.w3.org/1999/xlink" width="224.87999pt" height="225pt" viewBox="0 0 224.87999 225" version="1.2">
<defs>
<clipPath id="clip1">
  <path d="M 0 0.0585938 L 224.761719 0.0585938 L 224.761719 224.9375 L 0 224.9375 Z M 0 0.0585938 "/>
</clipPath>
</defs>
<g id="surface1">
<g clip-path="url(#clip1)" clip-rule="nonzero">
<path style=" stroke:none;fill-rule:nonzero;fill:rgb(99.21875%,48.239136%,92.549133%);fill-opacity:1;" d="M 170.621094 151.246094 C 157.019531 169.738281 135.265625 180.765625 112.441406 180.765625 C 89.617188 180.765625 67.859375 169.738281 54.257812 151.246094 C 53.570312 150.320312 53.316406 149.160156 53.570312 148.03125 C 58.179688 126.414062 74.417969 109.503906 94.808594 103.183594 C 86.085938 97.425781 80.3125 87.558594 80.3125 76.359375 C 80.3125 58.648438 94.730469 44.234375 112.441406 44.234375 C 130.148438 44.234375 144.566406 58.648438 144.566406 76.359375 C 144.566406 87.558594 138.792969 97.425781 130.070312 103.183594 C 150.464844 109.503906 166.699219 126.414062 171.3125 148.03125 C 171.5625 149.160156 171.3125 150.320312 170.621094 151.246094 Z M 112.441406 0.0585938 C 50.433594 0.0585938 0 50.492188 0 112.5 C 0 174.507812 50.433594 224.941406 112.441406 224.941406 C 174.449219 224.941406 224.878906 174.507812 224.878906 112.5 C 224.878906 50.492188 174.449219 0.0585938 112.441406 0.0585938 "/>
</g>
<path style=" stroke:none;fill-rule:nonzero;fill:rgb(99.21875%,48.239136%,92.549133%);fill-opacity:1;" d="M 112.441406 100.453125 C 125.726562 100.453125 136.535156 89.644531 136.535156 76.359375 C 136.535156 63.070312 125.726562 52.265625 112.441406 52.265625 C 99.152344 52.265625 88.347656 63.070312 88.347656 76.359375 C 88.347656 89.644531 99.152344 100.453125 112.441406 100.453125 "/>
<path style=" stroke:none;fill-rule:nonzero;fill:rgb(99.21875%,48.239136%,92.549133%);fill-opacity:1;" d="M 112.441406 108.484375 C 88.597656 108.484375 67.59375 124.96875 61.820312 147.953125 C 74.117188 163.730469 92.472656 172.734375 112.441406 172.734375 C 132.410156 172.734375 150.761719 163.730469 163.058594 147.953125 C 157.289062 124.96875 136.285156 108.484375 112.441406 108.484375 "/>
</g>
</svg>
